<svg xmlns="http://www.w3.org/2000/svg" viewBox="0 0 24 24" fill="currentColor">
  <path d="M12 15.5a3.5 3.5 0 1 0 0-7 3.5 3.5 0 0 0 0 7Z"/>
  <path d="M19.4 15a1.7 1.7 0 0 0 .34 1.87l.06.06a2 2 0 1 1-2.83 2.83l-.06-.06a1.7 1.7 0 0 0-1.87-.34A1.7 1.7 0 0 0 14 20.9V21a2 2 0 1 1-4 0v-.1a1.7 1.7 0 0 0-1-1.54 1.7 1.7 0 0 0-1.87.34l-.06.06a2 2 0 1 1-2.83-2.83l.06-.06A1.7 1.7 0 0 0 4.6 15 1.7 1.7 0 0 0 3.1 14H3a2 2 0 1 1 0-4h.1A1.7 1.7 0 0 0 4.6 9a1.7 1.7 0 0 0-.34-1.87l-.06-.06a2 2 0 1 1 2.83-2.83l.06.06A1.7 1.7 0 0 0 9 4.6 1.7 1.7 0 0 0 10 3.1V3a2 2 0 1 1 4 0v.1A1.7 1.7 0 0 0 15 4.6a1.7 1.7 0 0 0 1.87-.34l.06-.06a2 2 0 1 1 2.83 2.83l-.06.06A1.7 1.7 0 0 0 19.4 9 1.7 1.7 0 0 0 20.9 10H21a2 2 0 1 1 0 4h-.1a1.7 1.7 0 0 0-1.54 1Z"/>
</svg>
